<?xml version="1.0" standalone="no"?>
<!DOCTYPE svg PUBLIC "-//W3C//DTD SVG 20010904//EN"
 "http://www.w3.org/TR/2001/REC-SVG-20010904/DTD/svg10.dtd">
<svg version="1.0" xmlns="http://www.w3.org/2000/svg"
 width="323.000000pt" height="442.000000pt" viewBox="0 0 323.000000 442.000000"
 preserveAspectRatio="xMidYMid meet">

<g transform="translate(0.000000,442.000000) scale(0.100000,-0.100000)"
fill="#000000" stroke="none">
<path d="M1432 4386 c-154 -30 -300 -86 -417 -161 -55 -35 -62 -37 -90 -25
-266 107 -453 150 -731 171 -85 6 -157 9 -159 7 -2 -2 6 -38 19 -80 34 -109
82 -360 101 -523 9 -77 22 -266 29 -420 12 -259 15 -286 40 -360 15 -44 36
-95 46 -113 l19 -32 -54 -80 c-97 -142 -167 -314 -196 -480 -18 -106 -15 -325
6 -440 55 -299 222 -639 461 -940 94 -118 367 -389 499 -494 143 -114 317
-231 484 -328 l135 -77 75 41 c188 103 370 225 554 370 122 97 407 379 501
498 228 286 384 600 447 900 29 138 31 384 5 505 -36 164 -100 315 -188 443
l-54 78 29 63 c57 122 67 183 77 466 13 352 50 639 116 882 13 51 27 100 31
109 5 14 -5 15 -103 9 -292 -18 -480 -57 -712 -147 l-103 -40 -47 31 c-84 54
-234 119 -337 147 -83 22 -126 27 -255 30 -104 2 -179 -1 -228 -10z m385 -91
c44 -8 112 -26 151 -39 75 -26 232 -104 231 -115 0 -3 -46 -35 -101 -71 -188
-121 -366 -324 -440 -503 -17 -39 -31 -73 -33 -75 -1 -1 -14 29 -29 67 -68
174 -246 380 -440 509 l-106 71 28 19 c73 52 210 106 332 132 108 23 299 26
407 5z m-839 -477 c7 -7 12 -29 12 -49 0 -34 3 -38 32 -44 18 -4 33 -4 35 1 2
5 12 24 23 42 18 29 25 33 48 27 39 -9 72 -33 72 -51 0 -8 -7 -28 -14 -43 -15
-27 -14 -28 28 -58 l43 -31 29 24 c38 31 55 30 87 -4 35 -36 34 -57 -3 -88
l-29 -25 26 -42 c15 -23 28 -44 29 -45 2 -2 19 1 39 8 44 14 60 4 74 -47 13
-47 6 -61 -41 -73 l-39 -11 3 -52 c3 -51 3 -51 43 -59 48 -10 57 -23 49 -68
-10 -53 -21 -63 -70 -55 l-43 6 -21 -47 c-17 -39 -18 -49 -7 -56 8 -4 25 -16
38 -27 l24 -20 -21 -38 c-32 -56 -46 -61 -91 -31 l-38 25 -38 -33 c-38 -32
-38 -33 -23 -63 26 -49 21 -68 -23 -91 -47 -23 -65 -19 -81 21 -17 39 -22 41
-74 28 -45 -11 -46 -12 -46 -53 0 -53 -13 -66 -65 -66 -51 0 -65 13 -65 62 0
41 -2 43 -63 53 -36 6 -38 4 -52 -29 -19 -46 -30 -51 -77 -35 -54 17 -64 39
-40 86 l19 37 -38 28 c-21 15 -42 28 -45 28 -3 0 -19 -11 -36 -25 -38 -32 -51
-32 -82 6 -34 40 -33 62 6 93 l32 25 -23 43 c-13 24 -25 44 -26 45 -1 2 -17
-2 -35 -7 -49 -14 -68 -5 -80 42 -15 54 -9 66 44 79 l44 11 -5 41 c-7 61 -10
67 -36 67 -42 0 -61 22 -54 65 9 57 27 70 75 58 l39 -10 23 46 22 46 -31 26
c-39 32 -39 58 -1 99 31 33 33 33 82 -3 l27 -20 40 32 c40 32 40 33 26 61 -25
49 -20 69 27 90 50 22 60 19 82 -26 15 -33 19 -35 49 -29 65 13 67 14 67 54 0
48 14 61 65 61 23 0 46 -5 53 -12z m1403 -9 c6 -12 9 -34 7 -49 -4 -26 -1 -29
30 -35 19 -3 35 -5 36 -3 1 2 9 20 19 41 19 41 28 44 81 22 46 -19 51 -31 31
-78 l-15 -36 44 -30 43 -30 23 24 c32 34 63 32 94 -6 33 -39 33 -49 -4 -84
l-30 -28 22 -36 c31 -52 30 -52 72 -40 49 14 66 -1 69 -61 2 -43 1 -44 -38
-59 l-40 -16 3 -52 c3 -49 5 -53 28 -53 59 0 79 -39 54 -105 -10 -25 -13 -26
-58 -20 l-47 6 -19 -47 c-19 -46 -19 -47 0 -61 51 -37 55 -42 43 -66 -15 -29
-50 -67 -62 -67 -6 0 -24 11 -41 24 l-31 24 -40 -33 -39 -33 18 -40 c21 -47
18 -56 -33 -81 -43 -23 -63 -16 -81 29 -11 26 -17 30 -38 25 -13 -3 -38 -9
-54 -12 -29 -6 -30 -8 -25 -45 6 -48 -11 -68 -62 -68 -47 0 -61 14 -61 61 0
44 -1 44 -60 53 l-46 7 -18 -41 c-20 -46 -43 -51 -93 -20 -36 21 -40 41 -18
80 20 35 20 34 -26 64 l-40 27 -34 -25 c-19 -14 -38 -26 -43 -26 -12 0 -72 67
-72 80 0 5 15 23 34 40 l34 31 -25 45 c-18 31 -30 43 -42 40 -76 -23 -91 -14
-94 56 -2 42 -1 43 41 56 l43 14 -3 51 c-3 49 -4 52 -35 58 -49 10 -63 25 -56
62 12 62 20 69 72 62 l46 -6 22 45 22 44 -35 27 c-41 31 -42 44 -8 84 30 36
51 39 87 11 32 -26 36 -25 76 11 l33 31 -17 38 c-20 45 -16 54 34 79 43 22 63
16 81 -29 14 -34 15 -34 76 -19 42 11 44 13 44 48 0 48 14 61 67 61 33 0 45
-5 54 -21z m-700 -887 c26 -31 77 -95 115 -140 l68 -84 -13 -46 c-6 -26 -28
-71 -47 -100 -39 -59 -160 -182 -178 -182 -12 0 -130 115 -164 160 -33 43 -63
109 -65 143 -2 29 13 52 110 170 62 75 116 137 120 136 5 0 29 -26 54 -57z
m63 -702 c39 -6 72 -12 74 -15 11 -10 -44 -78 -81 -100 -93 -54 -183 -42 -259
35 -27 26 -48 52 -48 58 0 6 21 14 48 17 26 3 54 8 62 9 33 8 139 5 204 -4z
m-564 -166 c14 -28 27 -43 35 -40 8 3 29 8 47 11 29 5 38 1 75 -37 40 -41 42
-45 33 -83 -11 -50 -4 -59 83 -91 l67 -24 22 40 c23 40 23 40 85 40 61 0 64
-1 85 -35 27 -41 31 -41 101 -15 83 31 88 38 76 86 -11 41 -10 42 35 87 42 43
47 45 78 36 50 -14 54 -12 73 31 l18 39 30 -17 c51 -29 187 -163 229 -225 84
-123 132 -275 126 -397 l-3 -65 -35 -3 c-29 -3 -39 2 -61 29 l-26 32 -58 -27
-57 -26 7 -36 c6 -32 3 -41 -27 -71 -29 -30 -37 -33 -68 -28 -33 6 -37 3 -52
-27 -8 -18 -18 -47 -22 -63 -6 -26 -3 -33 24 -48 27 -16 30 -23 30 -67 0 -45
-3 -51 -31 -65 -24 -13 -29 -20 -23 -38 5 -18 42 -96 48 -104 1 -2 18 2 36 7
29 8 37 7 57 -12 13 -12 23 -26 23 -32 0 -30 -309 -396 -334 -396 -7 0 -25 13
-40 29 l-29 30 17 65 c9 36 16 67 16 70 0 7 -89 46 -104 46 -6 0 -27 -26 -47
-58 l-36 -57 -53 1 -53 2 -38 61 -39 60 -52 -21 c-29 -12 -54 -23 -56 -24 -2
-1 4 -32 13 -70 l16 -68 -33 -33 c-17 -18 -37 -33 -42 -33 -13 0 -129 125
-221 240 -156 194 -275 410 -322 587 -21 79 -26 121 -26 218 -1 105 3 130 27
200 52 152 158 295 291 392 32 23 60 43 61 43 1 0 12 -21 24 -46z m1244 -886
c-23 -70 -80 -194 -93 -202 -17 -11 -44 56 -44 106 1 46 25 101 58 128 22 19
90 40 93 29 2 -5 -4 -32 -14 -61z m-750 -769 c46 -11 116 -62 115 -82 0 -7
-36 -42 -81 -79 l-81 -67 -38 30 c-21 17 -60 50 -86 75 l-48 44 38 34 c34 30
83 52 125 55 7 1 33 -4 56 -10z"/>
<path d="M851 3534 c-30 -8 -70 -24 -89 -36 l-34 -21 60 -59 c52 -53 62 -59
80 -49 11 6 39 11 62 11 23 0 51 -5 62 -11 18 -10 28 -4 81 49 l59 60 -63 30
c-79 38 -146 46 -218 26z"/>
<path d="M667 3409 c-69 -106 -69 -252 0 -358 l15 -23 59 58 c32 31 55 62 52
67 -17 28 -21 83 -8 121 l15 41 -59 59 -59 59 -15 -24z"/>
<path d="M1118 3373 l-57 -58 12 -42 c8 -33 8 -53 0 -85 l-12 -43 58 -58 57
-58 29 52 c49 91 46 223 -8 312 l-23 37 -56 -57z"/>
<path d="M871 3294 c-42 -35 -43 -84 -2 -125 37 -36 79 -38 118 -5 22 19 28
32 28 66 0 80 -82 116 -144 64z"/>
<path d="M786 3042 l-58 -59 34 -20 c94 -57 206 -62 305 -13 l65 32 -59 60
c-55 55 -62 59 -83 48 -22 -12 -101 -10 -130 3 -11 5 -33 -11 -74 -51z"/>
<path d="M2263 3540 c-65 -13 -173 -76 -173 -101 0 -5 94 -9 237 -9 l237 0
-33 34 c-60 62 -176 95 -268 76z"/>
<path d="M2029 3343 c-6 -16 -13 -40 -16 -55 l-5 -28 316 0 c174 0 316 1 316
3 0 2 -7 27 -15 55 l-16 52 -285 0 -284 0 -11 -27z"/>
<path d="M2013 3173 c3 -16 10 -40 16 -55 l11 -28 284 0 285 0 16 52 c8 28 15
53 15 55 0 2 -142 3 -316 3 l-316 0 5 -27z"/>
<path d="M2090 3021 c0 -12 53 -53 98 -76 108 -54 267 -29 346 54 l30 31 -237
0 c-143 0 -237 -4 -237 -9z"/>
<path d="M1104 1915 c-15 -23 -15 -27 0 -51 23 -33 64 -30 85 8 14 24 14 28
-3 47 -26 29 -62 27 -82 -4z"/>
<path d="M2094 1895 c-15 -23 -15 -27 0 -50 10 -15 26 -25 41 -25 15 0 31 10
41 25 15 23 15 27 0 50 -10 15 -26 25 -41 25 -15 0 -31 -10 -41 -25z"/>
<path d="M1805 1718 c-36 -13 -82 -53 -101 -90 -8 -15 -14 -49 -14 -76 0 -39
-5 -53 -26 -73 l-26 -24 -96 102 c-96 101 -98 103 -185 133 -91 31 -137 38
-137 20 0 -6 12 -58 26 -115 l26 -105 77 -82 c129 -140 120 -123 81 -163 -24
-24 -43 -35 -63 -35 -87 0 -156 -115 -116 -193 37 -71 105 -99 175 -72 53 20
82 58 90 118 5 31 15 54 34 72 l27 26 103 -110 c126 -136 133 -138 221 -54 83
79 82 84 -46 223 l-105 114 24 25 c20 20 35 24 83 25 109 2 173 69 173 183 l0
57 -42 -40 c-92 -86 -82 -84 -133 -34 l-45 44 61 62 c49 49 57 62 44 68 -24 9
-75 6 -110 -6z"/>
<path d="M942 1678 c-15 -15 -15 -61 0 -76 28 -28 88 -2 88 38 0 40 -60 66
-88 38z"/>
<path d="M2240 1650 c-11 -11 -20 -27 -20 -35 0 -8 9 -24 20 -35 11 -11 27
-20 35 -20 8 0 24 9 35 20 11 11 20 27 20 35 0 8 -9 24 -20 35 -11 11 -27 20
-35 20 -8 0 -24 -9 -35 -20z"/>
<path d="M948 1413 c-2 -22 -8 -28 -25 -26 -17 2 -23 -2 -23 -17 0 -11 5 -20
10 -20 14 0 13 -37 -2 -42 -7 -3 -9 -12 -5 -22 4 -9 12 -14 17 -11 15 9 40
-13 34 -30 -8 -21 17 -30 31 -12 15 21 24 21 47 1 19 -18 17 -21 33 31 2 8 13
15 24 15 27 0 38 20 17 32 -20 11 -21 34 -1 42 22 8 6 37 -19 34 -16 -2 -22 3
-24 25 -4 29 -20 35 -40 15 -10 -10 -17 -10 -32 0 -29 18 -38 15 -42 -15z"/>
<path d="M1073 1049 c-42 -15 -37 -80 7 -94 41 -13 75 28 59 71 -9 25 -36 34
-66 23z"/>
<path d="M1242 808 c-17 -17 -15 -63 2 -77 46 -38 111 25 71 69 -20 22 -55 26
-73 8z"/>
</g>
</svg>
